<svg width="800" height="1000" xmlns="http://www.w3.org/2000/svg">
  <defs>
    <linearGradient id="bgGrad" x1="0%" y1="0%" x2="100%" y2="100%">
      <stop offset="0%" style="stop-color:#0a0a0a;stop-opacity:1" />
      <stop offset="50%" style="stop-color:#1a1a1a;stop-opacity:1" />
      <stop offset="100%" style="stop-color:#0a0a0a;stop-opacity:1" />
    </linearGradient>
    <linearGradient id="accentGrad" x1="0%" y1="0%" x2="100%" y2="100%">
      <stop offset="0%" style="stop-color:#c4ff00;stop-opacity:0.2" />
      <stop offset="100%" style="stop-color:#c4ff00;stop-opacity:0.05" />
    </linearGradient>
  </defs>
  
  <rect width="800" height="1000" fill="url(#bgGrad)"/>
  
  <circle cx="400" cy="300" r="120" fill="none" stroke="#c4ff00" stroke-width="3" opacity="0.3"/>
  <circle cx="400" cy="300" r="100" fill="none" stroke="#c4ff00" stroke-width="2" opacity="0.5"/>
  
  <circle cx="400" cy="300" r="80" fill="#1a1a1a" stroke="#c4ff00" stroke-width="3"/>
  
  <circle cx="380" cy="285" r="8" fill="#c4ff00"/>
  <circle cx="420" cy="285" r="8" fill="#c4ff00"/>
  
  <path d="M 370 320 Q 400 340 430 320" stroke="#c4ff00" stroke-width="3" fill="none" stroke-linecap="round"/>
  
  <rect x="150" y="450" width="500" height="80" rx="10" fill="url(#accentGrad)" stroke="#c4ff00" stroke-width="2"/>
  <text x="400" y="495" font-family="Arial, sans-serif" font-size="36" font-weight="bold" fill="#c4ff00" text-anchor="middle">BACQUIER ETHAN</text>
  
  <text x="400" y="600" font-family="Arial, sans-serif" font-size="24" fill="#c4ff00" text-anchor="middle" opacity="0.8">DÉVELOPPEUR FULL-STACK</text>
  
  <rect x="200" y="650" width="400" height="3" fill="#c4ff00" opacity="0.3"/>
  
  <text x="400" y="720" font-family="Arial, sans-serif" font-size="18" fill="#ffffff" text-anchor="middle" opacity="0.6">Lyon, France</text>
  
  <g opacity="0.2">
    <line x1="100" y1="100" x2="150" y2="150" stroke="#c4ff00" stroke-width="2"/>
    <line x1="700" y1="100" x2="650" y2="150" stroke="#c4ff00" stroke-width="2"/>
    <line x1="100" y1="900" x2="150" y2="850" stroke="#c4ff00" stroke-width="2"/>
    <line x1="700" y1="900" x2="650" y2="850" stroke="#c4ff00" stroke-width="2"/>
  </g>
  
  <circle cx="100" cy="500" r="3" fill="#c4ff00" opacity="0.5"/>
  <circle cx="700" cy="500" r="3" fill="#c4ff00" opacity="0.5"/>
  <circle cx="400" cy="850" r="3" fill="#c4ff00" opacity="0.5"/>
</svg>
